<svg width="96" height="96" viewBox="0 0 24 24" fill="none" xmlns="http://www.w3.org/2000/svg" role="img" aria-label="ai-pet-legacy">
  <rect width="24" height="24" rx="6" fill="#0F172A" fill-opacity="0.10"/>
  <g stroke="#0F172A" stroke-width="1.7" stroke-linecap="round" stroke-linejoin="round">
    <path d="M7 14c-2 0-3-1.5-3-3s1-3 2.5-3c1 0 1.8.5 2.5 1.3A4 4 0 0 1 15 9.3c.7-.8 1.5-1.3 2.5-1.3C19 8 20 9.5 20 11s-1 3-3 3"/><path d="M8 14h8v3a4 4 0 0 1-8 0v-3Z"/><path d="M10 16h.01M14 16h.01"/>
  </g>
</svg>